<svg>
<symbol id="logo-white" width="305" height="40" viewBox="0 0 305 40" fill="none" xmlns="http://www.w3.org/2000/svg">
<path d="M290.416 39.9999C287.362 39.9999 284.748 39.4075 282.574 38.2226C280.4 37.0257 278.732 35.362 277.572 33.2315C276.412 31.0891 275.831 28.6056 275.831 25.7809C275.831 22.9563 276.412 20.4787 277.572 18.3482C278.732 16.2058 280.4 14.5421 282.574 13.3572C284.748 12.1603 287.362 11.5619 290.416 11.5619C293.469 11.5619 296.083 12.1603 298.257 13.3572C300.432 14.5421 302.099 16.2058 303.259 18.3482C304.42 20.4787 305 22.9563 305 25.7809C305 28.6056 304.42 31.0891 303.259 33.2315C302.099 35.362 300.432 37.0257 298.257 38.2226C296.083 39.4075 293.469 39.9999 290.416 39.9999ZM290.489 32.675C291.344 32.675 292.083 32.3937 292.706 31.8312C293.329 31.2686 293.811 30.4667 294.153 29.4254C294.495 28.3841 294.666 27.1454 294.666 25.7091C294.666 24.2609 294.495 23.0221 294.153 21.9928C293.811 20.9515 293.329 20.1496 292.706 19.587C292.083 19.0245 291.344 18.7432 290.489 18.7432C289.585 18.7432 288.809 19.0245 288.162 19.587C287.515 20.1496 287.02 20.9515 286.678 21.9928C286.336 23.0221 286.165 24.2609 286.165 25.7091C286.165 27.1454 286.336 28.3841 286.678 29.4254C287.02 30.4667 287.515 31.2686 288.162 31.8312C288.809 32.3937 289.585 32.675 290.489 32.675Z" fill="white"/>
<path d="M257.92 39.9999C254.916 39.9999 252.326 39.4374 250.152 38.3123C247.99 37.1753 246.323 35.5475 245.15 33.429C243.99 31.2986 243.409 28.7492 243.409 25.7809C243.409 22.9323 243.996 20.4428 245.168 18.3123C246.341 16.1819 247.996 14.5242 250.133 13.3393C252.271 12.1543 254.793 11.5619 257.7 11.5619C259.826 11.5619 261.75 11.885 263.472 12.5314C265.194 13.1777 266.666 14.1172 267.888 15.35C269.109 16.5709 270.05 18.055 270.709 19.8025C271.369 21.5499 271.699 23.5188 271.699 25.7091V28.0071H246.561V22.5493H262.391C262.379 21.7594 262.171 21.0652 261.768 20.4667C261.377 19.8563 260.846 19.3835 260.174 19.0484C259.514 18.7013 258.763 18.5278 257.92 18.5278C257.102 18.5278 256.351 18.7013 255.667 19.0484C254.983 19.3835 254.433 19.8503 254.018 20.4488C253.615 21.0472 253.401 21.7474 253.376 22.5493V28.438C253.376 29.3237 253.566 30.1136 253.944 30.8078C254.323 31.502 254.867 32.0466 255.575 32.4416C256.284 32.8366 257.139 33.0341 258.14 33.0341C258.836 33.0341 259.472 32.9383 260.046 32.7468C260.632 32.5553 261.133 32.28 261.548 31.9209C261.963 31.5499 262.269 31.1071 262.464 30.5924H271.699C271.381 32.5074 270.63 34.1711 269.445 35.5834C268.26 36.9838 266.69 38.073 264.736 38.8509C262.794 39.6169 260.522 39.9999 257.92 39.9999Z" fill="white"/>
<path d="M220.336 39.8563C218.333 39.8563 216.488 39.3417 214.803 38.3124C213.129 37.283 211.786 35.7211 210.772 33.6265C209.77 31.532 209.269 28.8928 209.269 25.7091C209.269 22.3818 209.795 19.6768 210.845 17.5942C211.908 15.5116 213.276 13.9856 214.949 13.0161C216.635 12.0467 218.406 11.5619 220.263 11.5619C221.655 11.5619 222.877 11.8013 223.927 12.28C224.978 12.7468 225.857 13.3752 226.565 14.1651C227.274 14.9431 227.811 15.7989 228.178 16.7325H228.324V2.72888H238.438V39.4973H228.398V34.973H228.178C227.787 35.9066 227.225 36.7444 226.492 37.4865C225.771 38.2166 224.892 38.7971 223.854 39.228C222.828 39.6469 221.655 39.8563 220.336 39.8563ZM224.074 32.2441C225.002 32.2441 225.796 31.9808 226.455 31.4542C227.127 30.9156 227.64 30.1615 227.995 29.1921C228.361 28.2106 228.544 27.0496 228.544 25.7091C228.544 24.3447 228.361 23.1777 227.995 22.2082C227.64 21.2268 227.127 20.4787 226.455 19.9641C225.796 19.4374 225.002 19.1741 224.074 19.1741C223.145 19.1741 222.351 19.4374 221.692 19.9641C221.044 20.4787 220.544 21.2268 220.189 22.2082C219.847 23.1777 219.676 24.3447 219.676 25.7091C219.676 27.0736 219.847 28.2465 220.189 29.228C220.544 30.1975 221.044 30.9455 221.692 31.4721C222.351 31.9868 223.145 32.2441 224.074 32.2441Z" fill="white"/>
<path d="M193.85 39.4973V11.921H203.964V39.4973H193.85ZM198.907 9.04847C197.539 9.04847 196.366 8.60562 195.389 7.71993C194.412 6.83423 193.923 5.769 193.923 4.52424C193.923 3.27947 194.412 2.21424 195.389 1.32854C196.366 0.442848 197.539 0 198.907 0C200.287 0 201.46 0.442848 202.425 1.32854C203.402 2.21424 203.891 3.27947 203.891 4.52424C203.891 5.769 203.402 6.83423 202.425 7.71993C201.46 8.60562 200.287 9.04847 198.907 9.04847Z" fill="white"/>
<path d="M189.942 11.921L180.488 39.4973H168.761L159.307 11.921H169.934L174.478 30.1616H174.771L179.315 11.921H189.942Z" fill="white"/>
<path d="M127.178 10.772V2.72888H159.792V10.772H148.505V39.4973H138.465V10.772H127.178Z" fill="white"/>
<path d="M121.3 21.113V28.5816H103.711V21.113H121.3Z" fill="white"/>
<path d="M86.5421 27.4327V11.921H96.6558V39.4973H87.0551V34.2549H86.7619C86.1512 36.0144 85.0824 37.3908 83.5556 38.3842C82.0288 39.3657 80.2149 39.8564 78.1139 39.8564C76.1474 39.8564 74.4251 39.4135 72.9471 38.5278C71.4814 37.6421 70.3393 36.4213 69.5209 34.8654C68.7147 33.3094 68.3055 31.526 68.2933 29.5153V11.921H78.4071V27.4327C78.4193 28.7971 78.7735 29.8684 79.4698 30.6463C80.1782 31.4243 81.1676 31.8133 82.4379 31.8133C83.2808 31.8133 84.0075 31.6397 84.6183 31.2926C85.2412 30.9336 85.7176 30.4309 86.0474 29.7846C86.3894 29.1263 86.5543 28.3423 86.5421 27.4327Z" fill="white"/>
<path d="M48.573 39.9999C45.5193 39.9999 42.9054 39.4075 40.7312 38.2226C38.5569 37.0257 36.8896 35.362 35.7292 33.2315C34.5688 31.0891 33.9886 28.6056 33.9886 25.7809C33.9886 22.9563 34.5688 20.4787 35.7292 18.3482C36.8896 16.2058 38.5569 14.5421 40.7312 13.3572C42.9054 12.1603 45.5193 11.5619 48.573 11.5619C51.6267 11.5619 54.2406 12.1603 56.4148 13.3572C58.589 14.5421 60.2563 16.2058 61.4167 18.3482C62.5771 20.4787 63.1573 22.9563 63.1573 25.7809C63.1573 28.6056 62.5771 31.0891 61.4167 33.2315C60.2563 35.362 58.589 37.0257 56.4148 38.2226C54.2406 39.4075 51.6267 39.9999 48.573 39.9999Z" fill="white"/>
<path d="M0 2.72888H11.3597L18.6885 17.666H18.9816L26.3104 2.72888H37.6701L23.8919 27.9353V39.4973H13.7782V27.9353L0 2.72888Z" fill="white"/>
<path d="M58.75 26.25L43.75 34.9103V17.5897L58.75 26.25Z" fill="#FB6231"/>
</symbol>

<symbol id="logo-orange" xmlns="http://www.w3.org/2000/svg" width="240" height="32" viewBox="0 0 240 32" fill="none">
<path d="M228.524 32C226.121 32 224.064 31.526 222.353 30.5781C220.642 29.6206 219.33 28.2897 218.417 26.5853C217.504 24.8714 217.048 22.8845 217.048 20.6248C217.048 18.3651 217.504 16.383 218.417 14.6787C219.33 12.9647 220.642 11.6338 222.353 10.6858C224.064 9.72833 226.121 9.24957 228.524 9.24957C230.927 9.24957 232.984 9.72833 234.694 10.6858C236.405 11.6338 237.717 12.9647 238.63 14.6787C239.543 16.383 240 18.3651 240 20.6248C240 22.8845 239.543 24.8714 238.63 26.5853C237.717 28.2897 236.405 29.6206 234.694 30.5781C232.984 31.526 230.927 32 228.524 32ZM228.581 26.1401C229.254 26.1401 229.836 25.915 230.326 25.465C230.816 25.015 231.196 24.3734 231.465 23.5404C231.734 22.7074 231.869 21.7164 231.869 20.5673C231.869 19.4088 231.734 18.4177 231.465 17.5943C231.196 16.7612 230.816 16.1197 230.326 15.6697C229.836 15.2196 229.254 14.9946 228.581 14.9946C227.87 14.9946 227.26 15.2196 226.75 15.6697C226.241 16.1197 225.852 16.7612 225.583 17.5943C225.314 18.4177 225.179 19.4088 225.179 20.5673C225.179 21.7164 225.314 22.7074 225.583 23.5404C225.852 24.3734 226.241 25.015 226.75 25.465C227.26 25.915 227.87 26.1401 228.581 26.1401Z" fill="#FB6231"/>
<path d="M202.954 32C200.589 32 198.552 31.55 196.841 30.6499C195.139 29.7403 193.828 28.4381 192.905 26.7433C191.992 25.0389 191.535 22.9994 191.535 20.6248C191.535 18.3459 191.997 16.3543 192.919 14.6499C193.842 12.9456 195.144 11.6194 196.826 10.6715C198.508 9.72354 200.493 9.24957 202.781 9.24957C204.453 9.24957 205.967 9.5081 207.322 10.0252C208.677 10.5422 209.836 11.2939 210.797 12.2801C211.758 13.2568 212.498 14.4441 213.017 15.842C213.536 17.24 213.796 18.8151 213.796 20.5673V22.4058H194.015V18.0395H206.472C206.462 17.4076 206.298 16.8522 205.981 16.3734C205.674 15.8851 205.256 15.5069 204.727 15.2388C204.208 14.9611 203.617 14.8223 202.954 14.8223C202.31 14.8223 201.719 14.9611 201.18 15.2388C200.642 15.5069 200.21 15.8803 199.883 16.3591C199.566 16.8378 199.397 17.398 199.378 18.0395V22.7505C199.378 23.459 199.527 24.091 199.825 24.6463C200.123 25.2017 200.551 25.6374 201.108 25.9533C201.666 26.2693 202.339 26.4273 203.127 26.4273C203.675 26.4273 204.174 26.3507 204.626 26.1975C205.087 26.0443 205.482 25.8241 205.808 25.5368C206.135 25.24 206.375 24.8857 206.529 24.474H213.796C213.546 26.006 212.955 27.3369 212.022 28.4668C211.09 29.5871 209.855 30.4584 208.317 31.0808C206.789 31.6936 205.001 32 202.954 32Z" fill="#FB6231"/>
<path d="M173.379 31.8851C171.803 31.8851 170.351 31.4734 169.025 30.6499C167.708 29.8265 166.651 28.5769 165.853 26.9013C165.065 25.2256 164.671 23.1143 164.671 20.5673C164.671 17.9055 165.084 15.7415 165.911 14.0754C166.747 12.4093 167.824 11.1885 169.14 10.4129C170.467 9.63735 171.86 9.24956 173.321 9.24956C174.417 9.24956 175.378 9.44106 176.205 9.82407C177.031 10.1975 177.724 10.7002 178.281 11.3321C178.838 11.9545 179.261 12.6391 179.55 13.386H179.665V2.18314H187.623V31.5978H179.723V27.9785H179.55C179.242 28.7253 178.8 29.3956 178.223 29.9892C177.656 30.5733 176.964 31.0377 176.147 31.3824C175.34 31.7175 174.417 31.8851 173.379 31.8851ZM176.32 25.7953C177.051 25.7953 177.675 25.5847 178.194 25.1634C178.723 24.7325 179.127 24.1293 179.406 23.3537C179.694 22.5685 179.838 21.6397 179.838 20.5673C179.838 19.4758 179.694 18.5422 179.406 17.7666C179.127 16.9815 178.723 16.383 178.194 15.9713C177.675 15.55 177.051 15.3393 176.32 15.3393C175.59 15.3393 174.965 15.55 174.446 15.9713C173.937 16.383 173.542 16.9815 173.264 17.7666C172.995 18.5422 172.86 19.4758 172.86 20.5673C172.86 21.6589 172.995 22.5973 173.264 23.3824C173.542 24.158 173.937 24.7564 174.446 25.1777C174.965 25.5895 175.59 25.7953 176.32 25.7953Z" fill="#FB6231"/>
<path d="M152.538 31.5978V9.5368H160.496V31.5978H152.538ZM156.517 7.23878C155.441 7.23878 154.518 6.8845 153.749 6.17594C152.98 5.46738 152.595 4.6152 152.595 3.61939C152.595 2.62358 152.98 1.77139 153.749 1.06283C154.518 0.354278 155.441 0 156.517 0C157.603 0 158.526 0.354278 159.285 1.06283C160.054 1.77139 160.439 2.62358 160.439 3.61939C160.439 4.6152 160.054 5.46738 159.285 6.17594C158.526 6.8845 157.603 7.23878 156.517 7.23878Z" fill="#FB6231"/>
<path d="M149.462 9.53683L142.023 31.5979H132.796L125.357 9.53683H133.719L137.294 24.1293H137.525L141.1 9.53683H149.462Z" fill="#FB6231"/>
<path d="M100.075 8.61761V2.18314H125.738V8.61761H116.857V31.5978H108.956V8.61761H100.075Z" fill="#FB6231"/>
<path d="M95.4494 16.8904V22.8653H81.6087V16.8904H95.4494Z" fill="#FB6231"/>
<path d="M68.0987 21.9462V9.53683H76.0571V31.5979H68.5024V27.404H68.2717C67.7911 28.8115 66.9501 29.9126 65.7487 30.7074C64.5472 31.4925 63.1199 31.8851 61.4667 31.8851C59.9193 31.8851 58.564 31.5308 57.401 30.8223C56.2476 30.1137 55.349 29.1371 54.705 27.8923C54.0706 26.6475 53.7486 25.2209 53.739 23.6122V9.53683H61.6974V21.9462C61.707 23.0377 61.9857 23.8947 62.5336 24.5171C63.0911 25.1395 63.8696 25.4507 64.8692 25.4507C65.5324 25.4507 66.1043 25.3118 66.5849 25.0341C67.0751 24.7469 67.4499 24.3447 67.7094 23.8277C67.9786 23.301 68.1083 22.6739 68.0987 21.9462Z" fill="#FB6231"/>
<path d="M38.2214 32C35.8185 32 33.7616 31.526 32.0507 30.5781C30.3399 29.6206 29.0279 28.2897 28.1148 26.5853C27.2017 24.8714 26.7452 22.8845 26.7452 20.6248C26.7452 18.3651 27.2017 16.383 28.1148 14.6787C29.0279 12.9647 30.3399 11.6338 32.0507 10.6858C33.7616 9.72833 35.8185 9.24957 38.2214 9.24957C40.6242 9.24957 42.6811 9.72833 44.392 10.6858C46.1028 11.6338 47.4148 12.9647 48.3279 14.6787C49.241 16.383 49.6976 18.3651 49.6976 20.6248C49.6976 22.8845 49.241 24.8714 48.3279 26.5853C47.4148 28.2897 46.1028 29.6206 44.392 30.5781C42.6811 31.526 40.6242 32 38.2214 32Z" fill="#FB6231"/>
<path d="M0 2.18314H8.93875L14.7057 14.1329H14.9364L20.7033 2.18314H29.642L18.8002 22.3483V31.5978H10.8418V22.3483L0 2.18314Z" fill="#FB6231"/>
<path d="M46.2295 21L34.4262 27.9282V14.0718L46.2295 21Z" fill="white"/>
</symbol>

<symbol id="star-ob" width="20" height="20" viewBox="0 0 20 20" fill="none" xmlns="http://www.w3.org/2000/svg">
<path d="M11.4417 2.925L12.9083 5.85833C13.1083 6.26666 13.6417 6.65833 14.0917 6.73333L16.75 7.175C18.45 7.45833 18.85 8.69166 17.625 9.90833L15.5583 11.975C15.2083 12.325 15.0167 13 15.125 13.4833L15.7167 16.0417C16.1833 18.0667 15.1083 18.85 13.3167 17.7917L10.825 16.3167C10.375 16.05 9.63332 16.05 9.17499 16.3167L6.68332 17.7917C4.89999 18.85 3.81665 18.0583 4.28332 16.0417L4.87499 13.4833C4.98332 13 4.79165 12.325 4.44165 11.975L2.37499 9.90833C1.15832 8.69166 1.54999 7.45833 3.24999 7.175L5.90832 6.73333C6.34999 6.65833 6.88332 6.26666 7.08332 5.85833L8.54999 2.925C9.34999 1.33333 10.65 1.33333 11.4417 2.925Z" fill="white" stroke="#151515" stroke-linecap="round" stroke-linejoin="round"/>
</symbol>

 <symbol id="star-ow" xmlns="http://www.w3.org/2000/svg" width="20" height="20" viewBox="0 0 20 20" fill="none">
<path d="M11.4416 2.92501L12.9083 5.85835C13.1083 6.26668 13.6416 6.65835 14.0916 6.73335L16.7499 7.17501C18.4499 7.45835 18.8499 8.69168 17.6249 9.90835L15.5583 11.975C15.2083 12.325 15.0166 13 15.1249 13.4833L15.7166 16.0417C16.1833 18.0667 15.1083 18.85 13.3166 17.7917L10.8249 16.3167C10.3749 16.05 9.63326 16.05 9.17492 16.3167L6.68326 17.7917C4.89992 18.85 3.81659 18.0583 4.28326 16.0417L4.87492 13.4833C4.98326 13 4.79159 12.325 4.44159 11.975L2.37492 9.90835C1.15826 8.69168 1.54992 7.45835 3.24992 7.17501L5.90826 6.73335C6.34992 6.65835 6.88326 6.26668 7.08326 5.85835L8.54992 2.92501C9.34992 1.33335 10.6499 1.33335 11.4416 2.92501Z" stroke="white" stroke-linecap="round" stroke-linejoin="round"/>
</symbol>

<symbol id="star" width="20" height="20" viewBox="0 0 20 20" fill="none" xmlns="http://www.w3.org/2000/svg">
<path d="M11.4417 2.925L12.9083 5.85833C13.1083 6.26666 13.6417 6.65833 14.0917 6.73333L16.75 7.175C18.45 7.45833 18.85 8.69166 17.625 9.90833L15.5583 11.975C15.2083 12.325 15.0167 13 15.125 13.4833L15.7167 16.0417C16.1833 18.0667 15.1083 18.85 13.3167 17.7917L10.825 16.3167C10.375 16.05 9.63332 16.05 9.17499 16.3167L6.68332 17.7917C4.89999 18.85 3.81665 18.0583 4.28332 16.0417L4.87499 13.4833C4.98332 13 4.79165 12.325 4.44165 11.975L2.37499 9.90833C1.15832 8.69166 1.54999 7.45833 3.24999 7.175L5.90832 6.73333C6.34999 6.65833 6.88332 6.26666 7.08332 5.85833L8.54999 2.925C9.34999 1.33333 10.65 1.33333 11.4417 2.925Z" fill="#FB6231" stroke="#151515" stroke-linecap="round" stroke-linejoin="round"/>
</symbol>


<symbol id="search" width="20" height="20" viewBox="0 0 20 20" fill="none" xmlns="http://www.w3.org/2000/svg">
<path d="M9.66659 16C13.1644 16 15.9999 13.1645 15.9999 9.66667C15.9999 6.16887 13.1644 3.33334 9.66659 3.33334C6.16878 3.33334 3.33325 6.16887 3.33325 9.66667C3.33325 13.1645 6.16878 16 9.66659 16Z" stroke="white" stroke-width="1.5" stroke-linecap="round" stroke-linejoin="round"/>
<path d="M16.6666 16.6667L15.3333 15.3333" stroke="white" stroke-width="1.5" stroke-linecap="round" stroke-linejoin="round"/>
</symbol>





</svg>